<svg viewBox="0 0 1024 1024" xmlns="http://www.w3.org/2000/svg">
  <defs>
    <linearGradient id="fold" x1="0" y1="0" x2="1" y2="1">
      <stop offset="0" stop-color="#e2e8f0"/>
      <stop offset="1" stop-color="#94a3b8"/>
    </linearGradient>
  </defs>

  <!-- Document foreground (for Android adaptive icon — needs ~66% safe area inset) -->
  <g transform="translate(310 250)">
    <path d="M 60 0
             L 280 0
             L 404 124
             L 404 488
             Q 404 540 352 540
             L 60 540
             Q 0 540 0 488
             L 0 60
             Q 0 0 60 0 Z"
          fill="white"/>
    <path d="M 280 0
             L 404 124
             L 280 124
             Z"
          fill="url(#fold)"/>

    <rect x="60" y="228" width="284" height="18" rx="9" fill="#0F766E" opacity="0.22"/>
    <rect x="60" y="272" width="220" height="18" rx="9" fill="#0F766E" opacity="0.22"/>
    <rect x="60" y="316" width="284" height="18" rx="9" fill="#0F766E" opacity="0.22"/>
    <rect x="60" y="360" width="160" height="18" rx="9" fill="#0F766E" opacity="0.22"/>

    <circle cx="328" cy="432" r="58" fill="#10B981"/>
    <path d="M 300 432 L 322 454 L 360 414"
          stroke="white"
          stroke-width="14"
          fill="none"
          stroke-linecap="round"
          stroke-linejoin="round"/>
  </g>
</svg>
