<svg viewBox="0 0 512 512" xmlns="http://www.w3.org/2000/svg">
  <defs>
    <linearGradient id="fold" x1="0" y1="0" x2="1" y2="1">
      <stop offset="0" stop-color="#e2e8f0"/>
      <stop offset="1" stop-color="#94a3b8"/>
    </linearGradient>
  </defs>

  <g transform="translate(124 88)">
    <path d="M 36 0
             L 184 0
             L 264 80
             L 264 320
             Q 264 360 224 360
             L 36 360
             Q 0 360 0 320
             L 0 36
             Q 0 0 36 0 Z"
          fill="white"/>
    <path d="M 184 0
             L 264 80
             L 184 80
             Z"
          fill="url(#fold)"/>

    <rect x="40" y="148" width="184" height="14" rx="7" fill="#0F766E" opacity="0.22"/>
    <rect x="40" y="178" width="140" height="14" rx="7" fill="#0F766E" opacity="0.22"/>
    <rect x="40" y="208" width="184" height="14" rx="7" fill="#0F766E" opacity="0.22"/>
    <rect x="40" y="238" width="100" height="14" rx="7" fill="#0F766E" opacity="0.22"/>

    <circle cx="212" cy="280" r="38" fill="#10B981"/>
    <path d="M 194 280 L 208 294 L 232 266"
          stroke="white"
          stroke-width="10"
          fill="none"
          stroke-linecap="round"
          stroke-linejoin="round"/>
  </g>
</svg>
